<?xml version="1.0" standalone="no"?>
<!DOCTYPE svg PUBLIC "-//W3C//DTD SVG 20010904//EN"
 "http://www.w3.org/TR/2001/REC-SVG-20010904/DTD/svg10.dtd">
<svg version="1.0" xmlns="http://www.w3.org/2000/svg"
 width="640.000000pt" height="738.000000pt" viewBox="0 0 640.000000 738.000000"
 preserveAspectRatio="xMidYMid meet">
<metadata>
Created by potrace 1.16, written by Peter Selinger 2001-2019
</metadata>
<g transform="translate(0.000000,738.000000) scale(0.100000,-0.100000)"
fill="#49235f" stroke="none">
<path d="M3076 6782 c-5 -8 19 -192 30 -229 8 -27 51 -32 61 -7 3 9 0 67 -7
130 l-13 114 -33 0 c-18 0 -35 -4 -38 -8z"/>
<path d="M3170 6779 c0 -27 32 -206 40 -226 11 -26 48 -31 56 -8 4 8 0 66 -7
128 l-14 112 -37 3 c-25 2 -38 -1 -38 -9z"/>
<path d="M3270 6776 c0 -23 30 -178 41 -214 9 -27 34 -52 52 -52 18 0 13 84
-14 228 -10 51 -11 52 -45 52 -22 0 -34 -5 -34 -14z"/>
<path d="M2896 6773 c-17 -5 -18 -12 -12 -91 11 -142 14 -152 46 -152 36 0 39
14 33 145 -6 114 -6 113 -67 98z"/>
<path d="M2979 6775 c-6 -5 18 -212 26 -233 3 -8 16 -12 32 -10 l28 3 -2 80
c-1 44 -5 99 -8 123 -6 40 -8 42 -39 42 -18 0 -35 -2 -37 -5z"/>
<path d="M3370 6763 c0 -9 12 -66 26 -125 17 -73 33 -115 47 -129 47 -43 51
-22 27 127 -11 70 -23 130 -26 135 -3 5 -21 9 -40 9 -25 0 -34 -4 -34 -17z"/>
<path d="M2799 6763 c-13 -3 -15 -20 -11 -111 2 -59 8 -115 14 -124 12 -24 45
-23 58 1 11 22 13 109 4 189 -7 54 -14 59 -65 45z"/>
<path d="M3476 6743 c15 -69 55 -224 64 -247 9 -24 37 -46 61 -46 16 0 9 58
-26 203 l-28 117 -39 0 c-37 0 -38 -1 -32 -27z"/>
<path d="M2713 6753 c-22 -4 -23 -8 -23 -113 0 -94 2 -111 18 -118 19 -10 43
-5 54 12 18 27 4 227 -16 225 -6 -1 -21 -4 -33 -6z"/>
<path d="M3580 6748 c0 -25 41 -184 60 -236 41 -109 65 -142 102 -142 14 0 6
50 -27 170 -15 52 -33 119 -41 149 -8 29 -17 58 -20 62 -8 14 -74 11 -74 -3z"/>
<path d="M3690 6733 c0 -27 40 -162 73 -248 44 -113 70 -152 107 -160 40 -9
46 -2 30 32 -7 16 -39 106 -70 201 -32 95 -59 175 -61 176 -2 2 -21 6 -41 9
-31 5 -38 3 -38 -10z"/>
<path d="M2602 6732 c-20 -13 -12 -246 8 -250 35 -6 50 21 57 104 8 109 -1
154 -30 154 -12 0 -28 -4 -35 -8z"/>
<path d="M3806 6702 c19 -75 81 -238 125 -323 45 -88 58 -104 164 -199 110
-100 145 -127 145 -116 0 3 -15 23 -34 43 -81 92 -207 321 -277 506 -34 91
-42 100 -97 110 -31 6 -32 6 -26 -21z"/>
<path d="M2508 6713 c-10 -2 -18 -12 -18 -21 0 -9 -3 -61 -7 -114 -6 -107 1
-128 43 -128 14 0 25 8 29 21 6 17 9 179 6 237 -1 12 -20 14 -53 5z"/>
<path d="M2420 6691 c-21 -6 -26 -15 -32 -56 -3 -28 -7 -82 -7 -121 -1 -59 2
-73 16 -78 11 -4 25 2 39 16 20 20 23 35 26 136 3 74 0 112 -7 111 -5 -1 -21
-4 -35 -8z"/>
<path d="M3951 6618 c107 -306 307 -555 590 -731 210 -131 548 -211 909 -216
l135 -1 -40 38 c-34 32 -48 39 -85 40 -25 1 -102 9 -172 17 -503 58 -858 244
-1076 563 -56 82 -144 244 -171 315 -11 28 -30 39 -88 51 l-31 7 29 -83z"/>
<path d="M2304 6660 c-19 -8 -22 -19 -29 -129 -3 -66 -4 -125 0 -131 9 -14 40
-13 53 3 15 17 32 128 32 205 0 66 -6 72 -56 52z"/>
<path d="M4081 6608 c51 -130 151 -286 254 -396 242 -258 565 -389 1048 -427
51 -5 87 -4 87 2 0 5 -17 25 -37 45 -36 33 -44 36 -139 47 -56 7 -162 28 -235
47 -399 105 -669 311 -853 651 -24 44 -36 54 -74 68 -72 24 -74 22 -51 -37z"/>
<path d="M2209 6629 c-29 -11 -34 -27 -44 -129 -3 -30 -8 -79 -11 -108 -3 -33
-1 -58 6 -67 13 -16 -5 -98 -26 -116 -8 -6 -15 -30 -15 -53 -1 -22 -5 -54 -10
-71 -6 -21 -7 -8 -4 41 4 56 2 74 -10 84 -19 16 -19 50 0 76 12 18 22 70 50
277 6 40 -2 45 -48 28 -21 -8 -26 -19 -36 -78 -20 -133 -31 -241 -26 -255 3
-8 -1 -35 -10 -59 -9 -24 -19 -54 -22 -66 -9 -37 -21 -26 -29 24 -4 28 -2 59
5 79 13 37 60 324 52 324 -20 0 -72 -27 -76 -39 -7 -26 -36 -221 -41 -286 -7
-80 -41 -198 -56 -189 -15 9 -4 124 31 309 15 83 24 152 19 153 -4 2 -23 -5
-40 -15 l-32 -19 -42 -246 c-23 -135 -47 -255 -53 -266 -15 -28 -13 -119 3
-164 15 -41 14 -64 -4 -125 -15 -50 -46 -59 -56 -17 -9 36 1 113 20 149 12 22
16 59 15 145 -1 91 7 154 35 305 19 104 33 191 31 193 -2 3 -19 -4 -36 -14
-37 -22 -41 -33 -84 -284 -28 -166 -53 -290 -65 -330 -5 -19 -9 -9 -14 45 -8
77 7 193 49 392 13 64 23 118 21 120 -7 7 -66 -33 -71 -47 -2 -8 -18 -85 -34
-170 -59 -297 -78 -527 -50 -595 7 -17 13 -59 15 -95 1 -38 14 -98 29 -143 28
-82 30 -120 2 -45 -67 183 -91 332 -90 558 0 110 6 164 32 290 17 85 31 158
31 163 0 4 -15 -3 -34 -15 -31 -21 -35 -29 -56 -128 -27 -129 -47 -312 -54
-490 -4 -119 -2 -147 19 -235 13 -55 31 -120 39 -144 17 -47 21 -75 7 -51 -25
43 -69 198 -86 305 -4 22 -12 46 -18 53 -31 38 -15 334 30 535 8 38 13 71 10
73 -2 3 -18 -6 -34 -20 -28 -23 -32 -36 -53 -157 -39 -225 -32 -587 13 -714
13 -38 28 -79 32 -90 l7 -20 -17 20 c-9 11 -25 52 -37 90 -11 39 -26 77 -33
85 -54 67 -72 340 -37 577 16 111 16 121 1 113 -31 -17 -41 -41 -55 -132 -20
-134 -18 -339 6 -483 36 -225 81 -357 175 -512 25 -41 41 -72 35 -68 -6 3 -37
52 -70 108 -33 56 -70 114 -82 129 -40 49 -105 227 -129 348 -19 100 -21 138
-16 290 2 96 8 184 12 195 6 17 3 16 -20 -6 -24 -23 -29 -38 -37 -115 -25
-233 37 -553 150 -781 16 -32 32 -70 35 -84 4 -14 29 -61 57 -105 28 -43 40
-66 28 -50 -13 16 -42 52 -65 80 -124 148 -211 333 -258 546 -9 42 -19 147
-22 237 l-6 162 -20 -25 c-18 -24 -19 -36 -14 -162 7 -156 30 -271 82 -421 39
-111 122 -285 180 -375 19 -30 35 -59 35 -63 0 -5 12 -26 26 -47 l27 -39 -37
29 c-68 53 -176 211 -247 359 -81 171 -125 326 -135 475 -8 122 -11 135 -31
119 -30 -26 3 -259 62 -435 51 -153 178 -393 287 -541 50 -68 100 -153 90
-153 -13 0 -35 21 -103 100 -214 246 -356 533 -407 820 -16 94 -20 103 -31 82
-10 -18 -9 -40 5 -115 47 -258 175 -520 398 -815 109 -145 149 -202 143 -209
-10 -10 -136 118 -223 226 -193 240 -304 450 -373 704 -22 80 -29 96 -39 85
-9 -11 -6 -33 12 -101 81 -293 213 -520 519 -892 59 -71 122 -148 139 -170
l32 -40 -30 28 c-17 15 -35 27 -40 27 -15 0 -209 201 -297 307 -159 193 -308
453 -373 651 -19 60 -30 80 -37 73 -16 -16 33 -158 107 -308 105 -213 229
-385 492 -684 109 -124 143 -169 125 -169 -43 0 -367 347 -509 547 -111 155
-235 385 -257 476 -8 32 -21 42 -28 23 -8 -20 24 -100 94 -236 112 -220 269
-431 523 -702 159 -170 216 -236 216 -250 0 -14 -21 1 -91 64 -334 299 -582
604 -730 901 -33 65 -64 115 -69 112 -18 -11 80 -206 173 -345 128 -190 261
-351 467 -565 201 -210 214 -224 207 -231 -15 -15 -103 59 -287 245 -264 265
-418 459 -548 694 -33 60 -63 103 -67 97 -9 -14 70 -159 155 -287 120 -179
245 -327 487 -576 84 -87 153 -164 153 -171 0 -9 -9 -12 -26 -8 -30 5 -340
310 -455 447 -138 165 -233 295 -309 425 -28 47 -46 69 -48 58 -7 -35 201
-340 353 -515 37 -43 146 -160 241 -260 158 -164 200 -220 160 -211 -24 5
-207 179 -352 335 -158 169 -268 305 -368 455 -41 62 -72 101 -74 92 -2 -8 30
-66 72 -127 133 -199 265 -353 558 -654 93 -94 168 -176 168 -182 0 -25 -35
-7 -107 58 -112 99 -386 380 -475 486 -80 96 -227 291 -235 312 -6 15 -23 18
-23 4 0 -18 161 -234 267 -358 58 -69 204 -225 325 -347 153 -156 218 -228
218 -243 0 -13 -2 -23 -6 -23 -8 0 -268 247 -401 381 -144 147 -259 279 -351
406 -37 50 -70 92 -74 92 -19 2 -3 -28 64 -117 120 -160 269 -324 523 -577
214 -214 275 -280 275 -300 0 -55 -618 550 -795 778 -85 109 -105 130 -105
107 0 -33 476 -568 592 -664 62 -52 344 -331 366 -362 86 -123 -168 95 -551
475 -143 141 -308 319 -394 426 -19 24 -32 34 -33 24 -1 -43 302 -367 723
-773 272 -263 337 -336 297 -336 -14 0 -615 567 -765 721 -66 68 -154 162
-195 209 -40 47 -77 87 -82 88 -67 28 228 -288 652 -698 118 -114 256 -248
305 -297 90 -89 142 -158 125 -168 -5 -3 -74 56 -152 132 -79 76 -249 238
-378 359 -236 222 -420 407 -518 519 -28 33 -52 53 -52 44 0 -26 214 -252 521
-549 399 -386 571 -561 636 -648 30 -40 79 -100 109 -134 30 -33 52 -63 50
-65 -3 -3 -94 86 -203 198 -109 111 -352 348 -540 526 -188 178 -398 383 -467
456 -73 76 -126 125 -126 115 0 -17 309 -332 750 -763 254 -249 405 -411 576
-620 159 -194 182 -262 28 -82 -243 283 -376 421 -734 760 -146 138 -345 331
-443 429 -99 99 -181 177 -184 174 -10 -10 128 -155 395 -412 339 -328 493
-484 648 -658 233 -259 520 -634 500 -653 -2 -2 -17 12 -33 32 -351 450 -543
661 -959 1055 -153 145 -341 326 -417 401 -76 75 -140 133 -142 128 -6 -8 141
-158 584 -594 306 -302 462 -474 639 -704 171 -222 412 -564 412 -585 0 -21
-27 9 -100 112 -358 501 -591 767 -1115 1268 -154 147 -313 299 -352 338 -40
39 -73 65 -73 59 0 -7 191 -203 424 -435 470 -469 596 -612 823 -928 163 -228
323 -475 323 -499 0 -24 -20 2 -131 167 -141 208 -329 458 -468 622 -109 129
-457 483 -781 794 -321 309 -206 173 178 -211 390 -389 496 -506 677 -748 210
-279 485 -721 472 -758 -2 -6 -41 49 -87 123 -179 290 -363 549 -539 760 -112
133 -344 382 -457 490 -44 41 -156 150 -251 242 -95 92 -175 168 -178 168 -20
0 28 -51 293 -317 163 -164 349 -356 411 -428 269 -307 515 -676 710 -1064 93
-185 108 -221 93 -221 -5 0 -35 51 -67 113 -233 448 -476 805 -776 1142 -128
144 -647 660 -655 652 -11 -11 15 -43 103 -128 567 -549 865 -933 1123 -1448
115 -232 209 -455 196 -468 -11 -11 -22 8 -76 132 -180 411 -397 770 -663
1095 -177 217 -677 727 -677 691 0 -7 75 -90 167 -185 467 -478 681 -762 892
-1186 120 -241 234 -539 248 -649 10 -81 -20 -29 -67 114 -24 72 -74 202 -112
290 -216 500 -500 897 -992 1385 -159 157 -134 97 30 -74 364 -376 586 -678
757 -1029 98 -199 196 -475 230 -647 l13 -65 90 -67 c325 -243 766 -442 1174
-528 134 -28 303 -51 397 -55 57 -2 107 -7 113 -10 6 -3 70 -5 143 -5 240 3
348 17 252 33 -19 3 -51 18 -70 33 -37 28 -85 99 -85 126 0 15 -56 65 -100 88
-51 27 -140 102 -195 165 -59 67 -69 92 -22 55 14 -11 32 -20 40 -20 15 0 215
-158 251 -199 26 -28 54 -27 62 3 3 14 2 31 -3 38 -8 15 -109 106 -187 171
-25 21 -46 45 -46 54 0 8 -17 31 -37 51 l-38 35 35 -22 c19 -12 55 -31 78 -42
24 -10 60 -33 80 -49 20 -17 40 -30 45 -30 4 0 37 -20 74 -45 36 -25 69 -45
73 -45 5 0 16 -3 25 -7 14 -5 16 -2 11 15 -4 11 -2 23 4 27 18 11 -34 59 -126
120 -44 29 -100 70 -125 93 -24 22 -57 51 -74 65 -46 39 -23 42 27 4 24 -19
64 -46 88 -60 25 -14 70 -48 100 -74 72 -64 116 -89 172 -97 85 -13 70 38 -30
104 -111 73 -211 151 -217 169 -3 9 -20 26 -38 39 -18 12 -47 36 -63 54 l-29
32 30 -19 c17 -10 48 -31 69 -47 21 -15 45 -28 52 -28 7 0 39 -13 71 -29 32
-15 69 -33 83 -39 14 -7 37 -22 52 -34 15 -12 31 -18 35 -14 5 4 -2 15 -15 25
-68 48 -153 126 -170 155 -13 22 -40 43 -76 61 -87 43 -146 105 -98 105 20 0
94 -52 139 -98 22 -22 41 -32 61 -32 20 0 55 -17 99 -46 37 -26 79 -50 93 -54
14 -4 34 -11 45 -16 11 -4 -23 35 -76 87 -119 117 -121 119 -155 125 -15 3
-50 23 -78 45 -57 46 -136 117 -136 124 0 2 26 -11 58 -29 57 -33 91 -51 147
-77 17 -8 36 -27 43 -42 17 -35 77 -73 145 -91 28 -8 69 -22 91 -31 21 -9 40
-14 43 -11 3 2 -9 25 -26 50 -36 51 -130 120 -195 142 -24 8 -56 27 -72 43
-16 15 -50 40 -76 55 -61 35 -138 105 -117 106 8 0 51 -25 95 -56 43 -30 97
-65 119 -76 22 -11 54 -33 70 -48 37 -35 155 -100 181 -100 10 0 39 -7 63 -16
46 -16 69 -10 37 10 -10 6 -56 41 -101 77 -44 36 -103 79 -129 95 -90 55 -113
69 -169 109 -84 59 -180 135 -170 135 5 0 19 -8 33 -17 13 -9 56 -33 94 -53
156 -81 175 -92 187 -106 7 -8 32 -27 56 -41 34 -20 46 -23 58 -13 25 21 -3
59 -69 92 -34 17 -73 43 -87 58 -14 15 -39 35 -56 43 -16 9 -45 31 -64 49 -19
18 -45 41 -59 51 -25 17 -25 17 7 2 18 -8 39 -15 47 -15 20 0 86 -30 111 -50
11 -9 36 -23 55 -30 19 -8 52 -24 73 -38 39 -24 54 -24 44 0 -4 13 -152 108
-167 108 -4 0 -15 9 -26 21 -10 12 -31 27 -46 35 -16 8 -28 21 -28 29 0 8 -45
44 -101 81 -55 36 -98 68 -95 71 2 2 26 -11 53 -29 93 -65 140 -88 182 -88 22
0 43 -4 46 -10 3 -5 14 -10 23 -10 12 0 9 5 -11 18 -15 10 -39 34 -53 53 -13
19 -43 49 -66 67 -45 35 -44 39 4 18 53 -22 103 -36 129 -36 21 0 14 9 -49 68
-40 37 -72 70 -72 73 0 22 38 15 84 -16 46 -30 116 -56 116 -43 0 2 -9 23 -20
45 -19 41 -36 53 -70 53 -10 0 -47 23 -82 51 -35 28 -75 57 -90 65 -16 8 -28
19 -28 25 0 6 15 1 33 -11 17 -12 48 -28 67 -36 19 -8 59 -27 88 -41 41 -20
56 -23 65 -14 16 16 2 36 -73 100 -63 53 -57 59 21 20 41 -20 55 -15 64 24 8
32 0 40 -85 87 -30 17 -68 41 -85 55 l-30 25 40 -18 c22 -10 69 -37 105 -60
36 -23 72 -42 80 -43 41 -4 166 4 174 11 5 5 -18 16 -50 25 -33 10 -79 29
-104 44 -25 15 -60 33 -78 41 -19 7 -54 30 -80 52 -26 21 -52 38 -59 38 -17 0
-34 -35 -27 -54 8 -22 -20 -31 -54 -17 -15 7 -43 26 -62 43 -24 21 -28 26 -11
18 22 -11 23 -11 18 10 -5 18 -2 21 14 17 26 -7 24 11 -5 34 -13 10 -26 28
-29 39 -4 17 0 20 28 20 18 0 44 -9 58 -20 14 -11 29 -20 34 -20 4 0 15 -13
24 -28 17 -31 76 -62 161 -87 32 -9 61 -22 65 -29 5 -7 23 -21 42 -31 19 -9
56 -32 82 -50 48 -34 161 -75 208 -75 39 0 147 -55 162 -82 7 -13 12 -37 10
-55 -2 -25 6 -41 38 -76 34 -37 45 -43 71 -39 39 6 42 12 32 59 -7 31 -5 42
10 57 20 22 23 57 8 86 -8 15 -5 25 14 45 21 22 23 31 15 53 -6 15 -19 34 -30
42 -18 15 -18 16 -2 17 28 2 120 32 102 32 -20 1 -45 29 -51 56 -3 11 2 33 10
48 7 16 12 30 10 32 -2 2 -19 22 -37 44 -19 23 -41 41 -49 41 -10 0 -6 9 12
25 15 14 31 25 37 25 5 0 9 5 9 10 0 6 -5 10 -11 10 -6 0 -25 15 -41 33 -17
17 -49 40 -72 50 l-41 17 46 -5 c44 -6 47 -4 51 20 4 21 -2 32 -36 58 -44 34
-144 87 -166 87 -7 0 -11 2 -9 5 3 2 33 0 69 -5 69 -10 100 -1 100 29 0 21
-37 58 -64 63 -11 1 -21 8 -23 13 -2 6 32 11 83 13 92 3 115 11 151 49 12 12
26 23 31 23 5 0 17 9 27 20 10 11 30 20 44 20 32 0 71 25 71 46 0 9 12 26 28
38 15 13 33 41 41 62 7 22 24 53 37 71 15 20 24 45 24 69 0 20 9 51 19 68 10
17 22 45 25 62 4 17 25 48 46 69 38 38 40 38 60 20 20 -18 29 -18 148 1 40 6
44 4 78 -31 l35 -38 317 9 c385 11 839 12 906 1 l49 -7 -6 51 c-4 29 -8 53
-10 55 -12 12 -467 18 -797 11 -358 -8 -718 -2 -706 11 4 3 104 4 224 3 119
-1 366 5 547 15 217 11 397 14 528 10 l197 -6 0 24 c0 14 -4 36 -10 50 l-10
26 -337 -1 c-186 -1 -504 -4 -708 -8 -365 -7 -416 -4 -379 24 14 10 15 15 4
36 -22 42 -52 69 -86 75 -18 3 -32 11 -31 18 1 7 -18 11 -58 11 -47 0 -74 7
-125 32 -36 17 -92 40 -126 51 -34 11 -74 27 -90 35 -16 8 -65 22 -109 31 -65
13 -94 14 -150 5 -110 -16 -223 -11 -295 15 -45 16 -45 16 -22 -3 27 -23 28
-34 3 -26 -11 3 -22 1 -26 -5 -5 -8 -20 -9 -44 -5 -20 4 -46 9 -59 10 -40 6
-152 74 -204 126 -39 39 -55 49 -73 45 -14 -4 -33 2 -53 17 -62 45 -137 109
-141 121 -6 16 -65 88 -162 197 -206 232 -330 467 -363 688 -8 53 -20 109 -25
124 -6 16 -11 47 -11 70 0 55 -15 105 -37 126 -17 16 -19 15 -36 -18 -17 -31
-19 -49 -13 -156 8 -130 24 -224 56 -324 21 -66 26 -104 8 -61 -33 81 -84 296
-92 391 -3 37 -12 79 -20 94 -12 22 -14 54 -9 145 4 86 2 125 -7 147 -13 30
-13 30 -33 10 -18 -18 -20 -37 -24 -211 -4 -237 -4 -257 2 -331 9 -107 -12
-20 -30 125 -13 102 -15 169 -10 272 7 130 6 138 -14 164 -12 15 -21 21 -21
13 0 -7 -10 -23 -21 -35 -13 -14 -23 -41 -26 -68 -7 -58 -19 -59 -27 -3 -16
108 -17 128 -7 141 13 16 37 137 46 229 6 72 4 74 -46 56z m-587 -913 c16 15
23 -60 20 -205 l-2 -95 -25 34 c-14 19 -25 41 -25 50 0 9 -7 38 -16 63 -15 43
-15 51 0 87 9 22 16 59 17 83 l1 42 12 -33 c6 -18 15 -30 18 -26z m1103 -532
c61 -91 171 -214 191 -214 7 0 33 -19 57 -42 51 -51 242 -201 303 -240 26 -17
49 -41 58 -62 11 -26 28 -40 77 -65 74 -36 161 -107 119 -95 -14 3 -60 28
-102 55 -75 47 -77 47 -84 26 -10 -27 -6 -54 11 -89 11 -24 11 -29 -6 -44 -17
-15 -20 -15 -51 5 -18 11 -46 37 -62 56 -16 20 -50 47 -76 60 -73 37 -439 407
-509 515 -14 21 -5 14 25 -20 78 -90 227 -234 259 -250 57 -28 180 -113 234
-162 50 -46 118 -84 129 -73 8 8 -80 84 -127 107 -24 13 -75 52 -111 88 -37
36 -90 84 -118 108 -32 26 -53 53 -57 72 -4 16 -42 74 -85 129 -89 112 -126
168 -152 226 l-18 40 20 -25 c12 -14 45 -62 75 -106z m110 -489 c33 -31 75
-63 92 -70 18 -8 53 -34 77 -59 45 -46 212 -176 226 -176 5 0 10 5 12 12 3 9
12 9 36 -1 40 -17 54 -34 46 -55 -10 -25 -42 -14 -118 42 -131 96 -191 137
-218 151 -16 7 -42 31 -58 51 -16 21 -61 63 -99 94 -38 31 -72 64 -75 73 -8
19 -6 17 79 -62z m1604 -370 c46 -25 79 -59 86 -87 7 -26 6 -26 -37 -21 -32 3
-39 2 -28 -6 8 -6 27 -11 41 -11 43 0 61 -31 66 -112 2 -40 4 -80 3 -88 -4
-101 -9 -140 -23 -166 -8 -17 -17 -42 -19 -57 -2 -16 -27 -53 -63 -91 -88 -95
-132 -106 -213 -56 -27 16 -63 33 -81 36 -17 4 -31 10 -31 14 0 4 18 3 41 -2
41 -11 119 5 119 23 0 34 -49 81 -105 100 -16 5 -13 7 12 8 17 1 35 6 38 11 3
6 15 10 26 10 21 0 26 22 7 37 -7 6 -60 25 -118 43 -104 32 -141 52 -126 67 7
8 45 8 161 2 89 -5 100 9 34 40 -32 16 -55 34 -58 45 -3 20 1 20 127 0 36 -6
46 -3 63 15 l20 21 -26 12 c-14 6 -25 15 -25 19 0 11 -69 50 -115 64 l-40 13
45 -5 c34 -4 49 -1 59 11 7 9 30 17 50 17 21 1 27 3 14 6 -11 2 -37 19 -56 38
-19 18 -53 39 -76 45 -22 6 -41 12 -41 13 0 1 55 3 121 4 90 2 128 -1 148 -12z
m-1076 -288 c20 -17 36 -35 34 -41 -3 -6 1 -22 8 -36 7 -14 35 -73 63 -131 28
-59 68 -128 88 -154 31 -41 35 -53 30 -83 -5 -31 -1 -39 30 -69 20 -18 42 -33
51 -33 28 0 90 -75 108 -131 10 -30 28 -65 40 -79 17 -19 22 -35 20 -62 -3
-32 2 -41 37 -73 22 -19 53 -42 69 -51 35 -17 35 -18 8 -43 -24 -22 -18 -38
21 -55 15 -6 48 -30 73 -53 36 -34 44 -46 40 -67 -4 -17 3 -43 18 -72 30 -56
19 -67 -63 -59 -56 6 -56 6 -63 -24 -9 -42 -60 -52 -107 -23 -53 33 -118 63
-194 87 -92 30 -169 73 -189 107 -15 26 -14 28 8 45 25 19 25 23 -5 88 -5 11
-14 39 -21 62 -9 32 -30 58 -83 105 -38 35 -81 71 -94 81 -19 14 -20 17 -5 11
11 -4 33 -8 48 -9 15 -2 34 -8 42 -15 8 -6 19 -9 25 -5 22 13 8 35 -45 70 -30
21 -55 42 -55 48 0 6 -7 18 -16 28 -14 16 -14 18 6 24 13 4 31 0 46 -10 14 -9
28 -14 31 -12 9 10 -18 47 -45 61 -15 8 -37 32 -48 53 -19 35 -19 40 -5 53 8
8 21 14 28 12 19 -4 16 12 -6 33 -23 20 -61 92 -53 100 3 3 16 5 29 5 29 0 29
11 -1 47 -13 15 -26 38 -30 50 -6 19 -2 25 18 33 30 11 36 51 10 72 -62 52
-69 68 -26 68 29 0 52 16 52 36 0 7 -13 26 -30 44 -16 18 -30 34 -30 35 0 10
100 -42 133 -68z m324 -212 c11 -8 36 -38 54 -66 28 -44 44 -57 99 -82 36 -16
72 -35 80 -42 8 -7 60 -27 114 -46 115 -38 113 -50 -3 -20 -44 12 -100 21
-124 21 -73 0 -217 82 -237 135 -12 34 -22 115 -13 115 5 0 18 -7 30 -15z"/>
<path d="M4220 6606 c0 -9 40 -78 88 -151 58 -88 196 -232 276 -289 166 -117
378 -201 596 -236 41 -7 98 -16 125 -20 28 -5 51 -7 52 -6 2 1 -19 23 -45 49
-44 44 -55 49 -163 77 -189 48 -326 106 -459 195 -94 63 -215 179 -275 263
-41 58 -59 74 -100 91 -62 24 -95 34 -95 27z"/>
<path d="M4420 6534 c0 -13 79 -109 132 -161 73 -71 188 -151 289 -200 91 -45
245 -99 313 -110 l41 -6 -90 72 c-49 39 -137 96 -195 126 -58 30 -138 80 -179
111 -69 52 -311 182 -311 168z"/>
<path d="M2630 6078 c0 -10 -4 -18 -9 -18 -18 0 -23 -86 -13 -196 18 -193 142
-510 264 -672 110 -147 189 -224 272 -266 60 -31 94 -57 154 -122 63 -67 86
-84 122 -94 25 -6 65 -23 89 -36 48 -26 61 -29 61 -14 0 6 -24 26 -54 45 -30
19 -63 47 -75 62 -34 46 -51 61 -77 67 -14 4 -44 20 -66 36 -23 17 -46 30 -52
31 -6 0 -29 23 -51 50 -22 28 -63 76 -91 107 -28 31 -57 68 -64 81 -7 14 -17
30 -22 35 -73 89 -147 197 -183 270 -55 112 -135 314 -135 343 0 12 -5 34 -11
50 -6 15 -15 64 -19 108 -7 71 -39 177 -40 133z"/>
<path d="M4440 5890 c0 -25 32 -70 80 -113 88 -79 294 -150 550 -188 149 -23
590 -39 590 -22 0 5 -12 21 -27 36 -25 23 -38 26 -128 32 -431 25 -699 87
-967 221 -96 48 -98 49 -98 34z"/>
<path d="M2786 5768 c2 -121 13 -162 80 -299 78 -160 148 -269 174 -269 10 0
30 -17 45 -37 36 -50 72 -83 265 -246 56 -48 171 -108 169 -89 0 4 -27 30 -61
57 -197 164 -383 359 -431 452 -19 37 -48 91 -64 118 -33 55 -123 249 -123
263 0 5 -6 15 -14 21 -8 6 -19 32 -25 56 -6 25 -13 45 -14 45 -2 0 -2 -33 -1
-72z"/>
<path d="M2913 5757 c12 -86 63 -213 117 -293 89 -131 170 -233 211 -266 22
-17 39 -37 39 -45 0 -7 4 -13 9 -13 27 0 15 25 -47 101 -38 46 -90 120 -117
164 -70 115 -173 321 -181 361 -4 21 -12 34 -21 34 -13 0 -15 -9 -10 -43z"/>
<path d="M3055 5770 c26 -105 109 -282 163 -347 61 -74 141 -157 146 -152 3 2
-29 49 -70 104 -41 54 -74 103 -74 108 0 4 -17 34 -37 65 -20 31 -58 100 -85
152 -27 52 -46 84 -43 70z"/>
<path d="M4610 5664 c0 -8 19 -35 41 -59 37 -40 54 -49 138 -75 153 -47 357
-71 651 -77 140 -3 265 -1 277 3 l22 9 -27 32 -27 32 -160 2 c-155 2 -443 28
-535 49 -111 24 -308 74 -342 86 -33 11 -38 11 -38 -2z"/>
<path d="M4700 5511 c-12 -9 -12 -14 2 -45 14 -29 26 -38 70 -51 174 -52 457
-74 876 -67 162 2 169 5 134 49 -16 21 -25 22 -262 27 -295 7 -533 35 -785 92
-11 2 -27 0 -35 -5z"/>
<path d="M4740 5369 c0 -37 27 -67 68 -78 20 -5 91 -18 157 -28 99 -14 185
-18 497 -17 406 0 415 1 385 47 l-16 25 -303 5 c-284 4 -538 23 -628 47 -19 5
-63 12 -97 16 -62 6 -63 6 -63 -17z"/>
<path d="M4770 5257 c0 -13 14 -52 25 -75 2 -2 76 -16 145 -26 103 -16 429
-24 660 -16 140 5 270 9 288 10 37 0 41 16 14 50 -18 22 -18 22 -343 21 -319
-2 -397 3 -736 45 -45 6 -53 4 -53 -9z"/>
<path d="M4800 5122 c0 -16 6 -35 13 -44 31 -41 387 -57 846 -38 171 7 311 17
311 21 0 4 -5 20 -12 34 l-11 25 -381 0 c-250 0 -436 6 -541 15 -228 21 -225
21 -225 -13z"/>
<path d="M4815 5021 c-9 -28 2 -59 25 -71 29 -16 381 -32 555 -26 330 12 625
30 625 37 0 5 -5 19 -11 32 l-11 25 -447 -1 c-245 -1 -475 1 -511 5 -222 22
-217 22 -225 -1z"/>
<path d="M4828 4907 c-2 -12 0 -34 5 -48 7 -25 13 -26 90 -32 124 -10 544 -8
718 3 85 5 215 12 290 16 l137 6 -11 35 -11 36 -241 -7 c-272 -8 -792 -9 -803
-2 -4 2 -44 7 -89 10 -79 6 -82 5 -85 -17z"/>
<path d="M4877 4812 l-38 -3 3 -42 3 -42 60 -8 c105 -15 1181 16 1199 33 2 3
-2 20 -10 39 l-14 34 -83 -6 c-144 -11 -919 -19 -1002 -10 -44 4 -97 7 -118 5z"/>
<path d="M5650 4698 c-118 -5 -349 -7 -514 -4 l-298 5 6 -41 c4 -23 9 -45 12
-48 9 -8 563 -8 734 1 391 20 543 29 547 33 3 3 2 18 -2 35 l-7 31 -131 -2
c-73 0 -229 -5 -347 -10z"/>
<path d="M5595 4588 c-104 -4 -314 -7 -465 -5 l-275 2 1 -38 c1 -21 7 -44 13
-50 14 -14 415 -12 716 3 105 6 281 13 393 17 190 6 202 7 197 25 -18 64 2 58
-203 56 -103 -1 -272 -5 -377 -10z"/>
<path d="M5725 4480 c-110 -4 -347 -8 -527 -9 l-328 -1 0 -34 c0 -69 -12 -66
239 -66 124 0 291 5 371 10 80 5 277 12 438 16 215 5 292 10 292 19 0 7 -5 26
-11 44 l-11 31 -131 -2 c-73 -1 -222 -5 -332 -8z"/>
<path d="M5830 4363 c-25 -2 -252 -7 -505 -11 l-460 -7 -9 -38 c-7 -27 -6 -41
3 -50 15 -14 440 -13 671 3 80 6 272 13 428 17 l283 6 -7 31 c-12 56 -13 56
-193 54 -91 -1 -186 -3 -211 -5z"/>
<path d="M5187 3973 l-178 -3 -36 -35 c-20 -19 -46 -35 -58 -35 -21 0 -45 -17
-45 -32 0 -4 24 -8 53 -7 28 0 93 -1 142 -2 50 -1 286 -1 525 0 397 3 548 -3
668 -25 l33 -6 -3 58 -3 59 -100 12 c-105 13 -694 23 -998 16z"/>
<path d="M4858 3814 c-2 -35 1 -66 6 -72 3 -2 13 1 24 7 16 9 22 7 34 -10 14
-21 19 -22 458 -25 245 -2 488 -6 540 -9 99 -7 333 -39 363 -50 15 -6 17 0 17
59 0 36 -1 66 -2 66 -2 0 -64 9 -138 20 -173 26 -613 43 -950 37 -140 -3 -262
-6 -270 -6 -8 -1 -30 1 -47 5 -31 6 -33 4 -35 -22z"/>
<path d="M4900 3685 c-7 -9 -21 -13 -31 -10 -11 4 -19 2 -19 -4 0 -6 5 -11 10
-11 6 0 10 -15 10 -34 0 -19 5 -38 10 -41 6 -3 139 -10 298 -15 687 -22 767
-28 1000 -86 57 -14 105 -24 107 -22 1 2 5 31 9 66 7 61 6 62 -19 72 -48 18
-287 58 -415 69 -132 12 -648 31 -836 31 -88 0 -114 -3 -124 -15z"/>
<path d="M4855 3537 c-9 -15 -15 -40 -13 -59 3 -32 5 -33 53 -39 78 -10 218
-19 370 -24 133 -5 246 -14 450 -36 140 -15 289 -47 423 -91 67 -22 125 -39
127 -36 3 2 7 36 11 74 l6 70 -103 32 c-247 76 -482 102 -1136 128 l-171 6
-17 -25z"/>
<path d="M4836 3403 c-4 -9 -4 -36 0 -60 8 -52 -6 -48 229 -68 264 -23 259
-22 400 -40 276 -34 475 -83 653 -162 57 -25 105 -43 108 -41 9 10 27 126 21
141 -14 37 -380 151 -567 176 -173 23 -358 42 -564 56 -273 19 -272 19 -280
-2z"/>
<path d="M4831 3254 c-6 -14 -11 -42 -11 -63 0 -38 0 -38 48 -44 508 -66 512
-66 685 -103 209 -44 437 -131 578 -219 l37 -24 15 52 c34 111 39 99 -60 150
-210 108 -360 152 -743 217 -53 9 -396 48 -491 55 -41 3 -48 1 -58 -21z"/>
<path d="M4801 3108 c-4 -13 -11 -38 -14 -56 -8 -40 1 -44 123 -61 47 -6 108
-16 135 -21 269 -52 332 -65 415 -87 232 -61 429 -146 587 -254 23 -16 44 -29
48 -29 6 0 21 36 41 97 l13 42 -72 46 c-245 158 -512 241 -1022 320 -215 33
-243 33 -254 3z"/>
<path d="M167 2993 c4 -10 50 -65 103 -123 200 -219 350 -408 464 -589 181
-286 287 -540 360 -863 6 -25 111 -126 121 -116 8 7 -52 220 -90 324 -116 311
-267 581 -476 854 -101 132 -160 200 -341 393 -125 132 -155 157 -141 120z"/>
<path d="M4786 2982 c-3 -5 -8 -27 -12 -49 -4 -29 -2 -44 9 -55 8 -8 84 -29
169 -47 467 -99 723 -194 970 -362 48 -32 91 -59 95 -59 8 0 53 102 53 120 0
13 -108 89 -210 147 -235 135 -463 208 -897 288 -144 27 -169 29 -177 17z"/>
<path d="M210 2831 c0 -21 9 -32 166 -223 177 -215 282 -377 388 -598 56 -117
133 -328 151 -412 6 -31 99 -137 110 -126 11 10 -58 233 -107 347 -120 284
-259 508 -474 766 -142 172 -234 268 -234 246z"/>
<path d="M4780 2835 c-6 -8 -10 -35 -8 -62 3 -55 -18 -45 223 -108 372 -97
611 -203 853 -377 46 -33 85 -58 86 -57 2 2 16 29 31 59 l28 54 -38 33 c-127
110 -409 261 -620 332 -124 41 -355 103 -476 126 -56 10 -70 10 -79 0z"/>
<path d="M4760 2665 c-20 -60 -11 -78 45 -96 28 -10 129 -43 225 -74 289 -94
479 -188 698 -344 63 -45 115 -81 116 -81 1 0 15 24 31 54 l29 54 -24 22 c-62
53 -244 177 -335 228 -108 61 -275 132 -425 181 -109 35 -314 91 -334 91 -8 0
-20 -16 -26 -35z"/>
<path d="M288 2595 c10 -27 49 -90 86 -139 127 -169 238 -364 310 -545 44
-111 61 -139 126 -211 28 -32 30 -33 24 -10 -34 129 -154 388 -255 548 -65
103 -204 291 -268 362 l-41 45 18 -50z"/>
<path d="M4741 2541 c-6 -11 -11 -37 -11 -59 l0 -39 123 -43 c347 -121 538
-217 782 -395 l114 -83 30 47 c17 26 31 50 31 53 0 10 -178 148 -260 201 -179
115 -343 192 -595 277 -189 64 -201 66 -214 41z"/>
<path d="M4704 2384 c-28 -67 -25 -69 164 -144 274 -109 527 -251 713 -400 34
-28 65 -50 68 -50 9 1 61 76 61 89 0 16 -136 127 -255 206 -112 75 -287 170
-405 220 -93 40 -301 115 -317 115 -8 0 -21 -16 -29 -36z"/>
<path d="M4657 2267 c-8 -12 -17 -36 -21 -52 -6 -30 -6 -30 101 -74 267 -109
501 -239 690 -383 52 -40 101 -77 109 -83 11 -8 23 0 49 30 19 22 34 43 35 46
1 19 -277 224 -407 300 -154 89 -485 239 -528 239 -7 0 -19 -10 -28 -23z"/>
<path d="M4601 2141 c-31 -43 -31 -72 -1 -87 14 -7 117 -57 230 -112 207 -102
375 -204 530 -325 l85 -67 40 41 40 40 -40 35 c-141 122 -356 267 -525 353
-97 50 -322 151 -335 151 -2 0 -13 -13 -24 -29z"/>
<path d="M4526 2021 c-49 -51 -40 -59 183 -172 207 -104 404 -227 544 -338 42
-34 80 -61 85 -61 4 0 25 17 45 38 l37 38 -87 71 c-191 153 -350 253 -588 370
-93 45 -175 83 -181 83 -5 0 -23 -13 -38 -29z"/>
<path d="M4477 1910 c-15 -25 -15 -31 -2 -64 13 -31 29 -43 114 -86 185 -92
402 -230 565 -356 37 -30 72 -54 77 -54 5 0 26 16 47 35 l37 34 -30 26 c-203
173 -485 353 -721 461 l-71 32 -16 -28z"/>
<path d="M4486 1768 c-8 -41 -19 -151 -21 -218 -3 -87 -20 -170 -45 -219 -11
-22 -20 -47 -20 -56 0 -9 -8 -32 -19 -53 -10 -20 -22 -53 -26 -72 -4 -19 -22
-51 -40 -71 -18 -20 -36 -46 -39 -57 -4 -11 -24 -27 -44 -35 -36 -14 -62 -49
-62 -81 0 -8 -14 -16 -30 -20 -35 -6 -80 -50 -80 -76 0 -19 -27 -30 -77 -30
-27 0 -34 -5 -40 -27 -3 -16 -6 -35 -6 -43 1 -12 -10 -14 -59 -12 -51 3 -63 1
-84 -19 -36 -33 -30 -42 22 -34 111 16 481 129 560 170 16 8 32 15 36 15 20 0
338 165 426 221 l22 14 -47 43 c-29 27 -36 36 -17 23 17 -11 37 -27 44 -36 20
-24 36 -19 128 45 141 98 133 87 92 121 -104 89 -317 238 -483 338 -21 13 -36
25 -34 27 13 13 356 -204 482 -306 93 -75 91 -74 117 -51 13 11 32 27 43 35
20 14 20 14 0 36 -34 38 -283 220 -389 285 -104 64 -288 165 -299 165 -4 0 -9
-10 -11 -22z"/>
</g>
</svg>
